Coordinates
version=1
nRows=14
nColumns=63
inDegrees=yes

Units are S.I. units (second, meters, Newtons, ...)
If the header above contains a line with 'inDegrees', this indicates whether rotational values are in degrees (yes) or radians (no).

endheader
time	pelvis_tilt	pelvis_list	pelvis_rotation	pelvis_tx	pelvis_ty	pelvis_tz	hip_flexion_r	hip_adduction_r	hip_rotation_r	knee_angle_r	knee_angle_r_beta	ankle_angle_r	subtalar_angle_r	mtp_angle_r	hip_flexion_l	hip_adduction_l	hip_rotation_l	knee_angle_l	knee_angle_l_beta	ankle_angle_l	subtalar_angle_l	mtp_angle_l	L5_S1_Flex_Ext	L5_S1_Lat_Bending	L5_S1_axial_rotation	L4_L5_Flex_Ext	L4_L5_Lat_Bending	L4_L5_axial_rotation	L3_L4_Flex_Ext	L3_L4_Lat_Bending	L3_L4_axial_rotation	L2_L3_Flex_Ext	L2_L3_Lat_Bending	L2_L3_axial_rotation	L1_L2_Flex_Ext	L1_L2_Lat_Bending	L1_L2_axial_rotation	L1_T12_Flex_Ext	L1_T12_Lat_Bending	L1_T12_axial_rotation	Abs_r3	Abs_r2	Abs_r1	Abs_t1	Abs_t2	neck_flexion	neck_bending	neck_rotation	arm_flex_r	arm_add_r	arm_rot_r	elbow_flex_r	pro_sup_r	wrist_flex_r	wrist_dev_r	arm_flex_l	arm_add_l	arm_rot_l	elbow_flex_l	pro_sup_l	wrist_flex_l	wrist_dev_l
0.916667	-1.269805	-2.417864	85.355984	0.322647	0.733677	0.682941	-1.969065	-0.076214	11.844820	2.549125	0.044491	21.329596	-1.323375	0.000000	-1.930355	-3.041586	-5.000698	3.821366	0.066695	22.820365	2.421600	0.000000	0.108914	-0.118674	2.476372	0.202265	-0.157836	2.631146	0.178935	-0.288543	2.631146	0.124478	-0.288543	2.166826	0.101138	-0.241999	2.012053	0.062234	-0.183825	1.857279	0.777963	-1.342459	13.772840	0.000000	0.000000	25.415078	-4.654051	-17.645692	3.386415	-7.440423	38.919934	48.524798	73.868017	9.704195	10.918705	20.128040	-10.824010	72.947704	52.855403	45.110670	2.827963	16.680750
0.933333	-1.301973	-2.422370	85.500803	0.322486	0.733680	0.683110	-1.937285	-0.113910	11.191711	2.534636	0.044238	21.630471	-0.504755	0.000000	-1.833600	-3.046148	-5.404196	3.919834	0.068414	23.107009	3.216903	0.000000	0.109928	-0.130041	2.491807	0.204148	-0.172955	2.647545	0.180602	-0.316182	2.647545	0.125637	-0.316182	2.180331	0.102080	-0.265180	2.024594	0.062813	-0.201434	1.868856	0.785208	-1.471050	13.858685	0.000000	0.000000	25.303321	-4.692799	-18.246351	3.327174	-7.440266	38.826911	48.481098	73.415861	9.678016	11.058307	20.375644	-10.745681	73.326996	52.726193	44.997252	2.914855	16.626270
0.950000	-1.312583	-2.432683	85.675656	0.322277	0.733665	0.683344	-1.903313	-0.126146	10.759765	2.505241	0.043725	21.850825	-0.033033	0.000000	-1.711462	-3.065222	-5.574152	4.059805	0.070857	23.320588	3.652658	0.000000	0.111236	-0.138724	2.494286	0.206577	-0.184503	2.650178	0.182750	-0.337294	2.650178	0.127132	-0.337294	2.182500	0.103294	-0.282886	2.026607	0.063561	-0.214884	1.870714	0.794551	-1.569275	13.872468	0.000000	0.000000	25.152207	-4.773135	-18.893777	3.307092	-7.462340	38.825987	48.425614	72.879548	9.672085	11.220637	20.574387	-10.649220	73.497835	52.597563	44.998775	3.027501	16.654249
0.966667	-1.301352	-2.446830	85.896032	0.321991	0.733636	0.683645	-1.862730	-0.119150	10.243830	2.477389	0.043239	22.088732	0.517983	0.000000	-1.564176	-3.105406	-5.632453	4.242114	0.074039	23.501004	3.938031	0.000000	0.111984	-0.144514	2.479331	0.207966	-0.192204	2.634289	0.183979	-0.351372	2.634289	0.127987	-0.351372	2.169415	0.103989	-0.294694	2.014457	0.063988	-0.223853	1.859498	0.799894	-1.634775	13.789297	0.000000	0.000000	24.974686	-4.895286	-19.585936	3.325091	-7.504831	38.929074	48.378016	72.084180	9.595180	11.464060	20.703170	-10.533429	73.423605	52.477163	45.054135	3.147369	16.810233
0.983333	-1.266818	-2.470099	86.151837	0.321634	0.733581	0.683982	-1.816589	-0.087262	9.826760	2.445331	0.042679	22.278190	0.880356	0.000000	-1.394891	-3.161521	-5.493902	4.453073	0.077721	23.621063	3.940926	0.000000	0.113385	-0.146740	2.446544	0.210567	-0.195164	2.599453	0.186280	-0.356783	2.599453	0.129588	-0.356783	2.140726	0.105289	-0.299232	1.987817	0.064788	-0.227300	1.834908	0.809898	-1.659951	13.606945	0.000000	0.000000	24.801657	-5.047271	-20.262343	3.380645	-7.562082	39.126341	48.326891	71.122194	9.485103	11.754230	20.750967	-10.409311	73.133211	52.373453	45.125657	3.234512	17.016250
1.000000	-1.215565	-2.505025	86.443375	0.321201	0.733499	0.684339	-1.764453	-0.037673	9.498186	2.409337	0.042051	22.415245	1.056449	0.000000	-1.207856	-3.226745	-5.173149	4.676002	0.081612	23.689863	3.695890	0.000000	0.115575	-0.145806	2.395314	0.214634	-0.193922	2.545021	0.189878	-0.354512	2.545021	0.132091	-0.354512	2.095900	0.107323	-0.297327	1.946192	0.066040	-0.225853	1.796485	0.825541	-1.649383	13.322017	0.000000	0.000000	24.663412	-5.205878	-20.870129	3.474813	-7.638513	39.436829	48.281408	69.878095	9.310364	12.098644	20.725725	-10.284738	72.678657	52.282854	45.194334	3.287276	17.224150
1.016667	-1.144857	-2.553734	86.824181	0.320646	0.733386	0.684682	-1.716453	0.033915	9.174664	2.360670	0.041201	22.494655	1.085777	0.000000	-0.991192	-3.309742	-4.685571	4.914680	0.085777	23.736049	3.320320	0.000000	0.118918	-0.141274	2.312346	0.220842	-0.187894	2.456867	0.195370	-0.343492	2.456867	0.135911	-0.343492	2.023302	0.110427	-0.288085	1.878781	0.067950	-0.218833	1.734259	0.849418	-1.598115	12.860573	0.000000	0.000000	24.599781	-5.302842	-21.299863	3.617950	-7.731094	39.897113	48.237102	68.296013	9.054647	12.500933	20.616180	-10.187739	72.078946	52.236683	45.298352	3.255936	17.384113
1.033333	-1.067251	-2.620895	87.175909	0.320085	0.733230	0.684983	-1.653308	0.111747	9.017657	2.315995	0.040422	22.499176	0.896079	0.000000	-0.776298	-3.387527	-4.085455	5.124365	0.089437	23.734236	2.745863	0.000000	0.124391	-0.134356	2.227808	0.231006	-0.178693	2.367046	0.204361	-0.326673	2.367046	0.142166	-0.326673	1.949332	0.115509	-0.273978	1.810094	0.071077	-0.208117	1.670856	0.888509	-1.519859	12.390398	0.000000	0.000000	24.616234	-5.417267	-21.672305	3.736153	-7.817544	40.254310	48.223722	66.958100	8.885651	12.934701	20.448084	-10.098765	71.406037	52.199979	45.512742	3.246182	17.516877
1.050000	-0.978176	-2.702014	87.598429	0.319420	0.733039	0.685246	-1.591862	0.200442	8.756058	2.269082	0.039603	22.466202	0.735154	0.000000	-0.543237	-3.471441	-3.278976	5.321605	0.092880	23.703311	2.007514	0.000000	0.131293	-0.124720	2.117702	0.243825	-0.165878	2.250059	0.215702	-0.303244	2.250059	0.150055	-0.303244	1.852989	0.121919	-0.254329	1.720633	0.075021	-0.193191	1.588277	0.937816	-1.410857	11.778025	0.000000	0.000000	24.722162	-5.481753	-21.892335	3.891445	-7.920633	40.721864	48.223368	65.484544	8.688217	13.386841	20.222760	-10.057181	70.702403	52.215991	45.753329	3.173136	17.611632
1.066667	-0.889608	-2.797270	87.974804	0.318778	0.732807	0.685473	-1.518401	0.288644	8.690107	2.230297	0.038926	22.330148	0.318167	0.000000	-0.325080	-3.546332	-2.456486	5.465298	0.095387	23.643789	1.221608	0.000000	0.140323	-0.113926	2.013718	0.260594	-0.151522	2.139575	0.230537	-0.277000	2.139575	0.160375	-0.277000	1.762003	0.130304	-0.232318	1.636146	0.080181	-0.176472	1.510288	1.002313	-1.288756	11.199694	0.000000	0.000000	24.890517	-5.585017	-22.098996	4.016176	-8.016631	41.070274	48.251010	64.483845	8.601747	13.774781	19.983793	-10.038258	70.063936	52.237312	46.013280	3.170373	17.727816
1.083333	-0.802169	-2.896166	88.330513	0.318126	0.732559	0.685672	-1.446625	0.375762	8.766043	2.196794	0.038341	22.104908	-0.302395	0.000000	-0.129433	-3.615903	-1.660913	5.552347	0.096907	23.571203	0.504952	0.000000	0.150280	-0.101997	1.911574	0.279085	-0.135657	2.031047	0.246895	-0.247997	2.031047	0.171755	-0.247997	1.672627	0.139550	-0.207993	1.553154	0.085870	-0.157994	1.433680	1.073433	-1.153816	10.631600	0.000000	0.000000	25.104619	-5.689508	-22.256458	4.122451	-8.102802	41.311006	48.284611	64.151757	8.635713	14.023469	19.749606	-10.049295	69.552220	52.268015	46.342614	3.206464	17.802994
1.100000	-0.717548	-2.986032	88.638571	0.317501	0.732320	0.685857	-1.384862	0.458810	9.002530	2.169020	0.037857	21.797236	-1.112174	0.000000	0.025540	-3.682959	-1.062524	5.577873	0.097352	23.507766	0.056150	0.000000	0.159881	-0.089301	1.815944	0.296914	-0.118770	1.929441	0.262668	-0.217127	1.929441	0.182727	-0.217127	1.588951	0.148465	-0.182103	1.475455	0.091356	-0.138327	1.361958	1.142011	-1.010191	10.099738	0.000000	0.000000	25.341887	-5.804026	-22.384843	4.235533	-8.185780	41.537374	48.301885	64.341018	8.730180	14.122588	19.522750	-10.088501	69.160656	52.305383	46.599931	3.297930	17.934775
1.116667	-0.631871	-3.068675	88.900449	0.316902	0.732102	0.686023	-1.330092	0.543066	9.418449	2.142317	0.037390	21.417452	-2.134327	0.000000	0.137717	-3.750779	-0.616230	5.532751	0.096565	23.444236	-0.181173	0.000000	0.169903	-0.076148	1.726011	0.315526	-0.101277	1.833887	0.279133	-0.185146	1.833887	0.194182	-0.185146	1.510260	0.157772	-0.155281	1.402384	0.097082	-0.117953	1.294508	1.213598	-0.861399	9.599557	0.000000	0.000000	25.539202	-5.993263	-22.626066	4.385114	-8.272925	41.880511	48.273453	64.802325	8.828844	14.046176	19.278426	-10.145342	68.806815	52.333309	46.861867	3.506332	18.158953
1.133333	-0.545312	-3.129211	89.104402	0.316343	0.731932	0.686178	-1.293922	0.624367	9.900308	2.114551	0.036906	21.037267	-3.169208	0.000000	0.189257	-3.818720	-0.337926	5.413431	0.094482	23.390432	-0.200803	0.000000	0.178786	-0.061797	1.647081	0.332023	-0.082190	1.750024	0.293727	-0.150253	1.750024	0.204334	-0.150253	1.441196	0.166020	-0.126017	1.338254	0.102158	-0.095724	1.235311	1.277048	-0.699061	9.160573	0.000000	0.000000	25.739540	-6.135986	-22.774330	4.538292	-8.352347	42.216601	48.206249	65.812686	8.984999	13.829791	19.081967	-10.217087	68.671858	52.358493	46.979662	3.639853	18.311534
